<svg width="40" height="40" viewBox="0 0 40 40" fill="none" xmlns="http://www.w3.org/2000/svg">
<g clip-path="url(#clip0_437_22)">
<path d="M34 0H6C2.68629 0 0 2.68629 0 6V34C0 37.3137 2.68629 40 6 40H34C37.3137 40 40 37.3137 40 34V6C40 2.68629 37.3137 0 34 0Z" fill="#22E81F"/>
<path d="M27.0312 30.625L25.3906 28.6719C28.5938 27.8125 29.8438 25.625 29.8438 25.625C25.7812 29.4531 14.6875 29.6094 10.3906 25.625C10.3906 25.625 11.4844 27.6562 14.7656 28.6719L12.9688 30.625C7.5 30.5469 5.39062 26.875 5.39062 26.875C5.39062 18.75 8.98438 12.2656 8.98438 12.2656C12.6562 9.6875 16.0156 9.6875 16.0156 9.6875L16.25 10C11.7188 11.25 9.76562 13.2812 9.76562 13.2812C15.0781 9.6875 26.0156 10 30.3125 13.2812C30.3906 13.2031 27.7344 11.0938 23.5938 10L23.9844 9.6875C23.9844 9.6875 27.3438 9.6875 31.0156 12.2656C31.0156 12.2656 34.6094 18.75 34.6094 26.875C34.6094 26.875 32.5 30.5469 27.0312 30.625Z" fill="white"/>
<path d="M15.3125 24.5312C16.7364 24.5312 17.8906 23.307 17.8906 21.7969C17.8906 20.2867 16.7364 19.0625 15.3125 19.0625C13.8886 19.0625 12.7344 20.2867 12.7344 21.7969C12.7344 23.307 13.8886 24.5312 15.3125 24.5312Z" fill="#22E81F"/>
<path d="M24.375 24.5312C25.7989 24.5312 26.9531 23.307 26.9531 21.7969C26.9531 20.2867 25.7989 19.0625 24.375 19.0625C22.9511 19.0625 21.7969 20.2867 21.7969 21.7969C21.7969 23.307 22.9511 24.5312 24.375 24.5312Z" fill="#22E81F"/>
</g>
<defs>
<clipPath id="clip0_437_22">
<rect width="40" height="40" fill="white"/>
</clipPath>
</defs>
</svg>
