<svg width="40" height="40" viewBox="0 0 40 40" fill="none" xmlns="http://www.w3.org/2000/svg">
<g clip-path="url(#clip0_533_2)">
<path d="M34 0H6C2.68629 0 0 2.68629 0 6V34C0 37.3137 2.68629 40 6 40H34C37.3137 40 40 37.3137 40 34V6C40 2.68629 37.3137 0 34 0Z" fill="#22E81F"/>
<path d="M15.3125 24.5312C16.7364 24.5312 17.8906 23.307 17.8906 21.7969C17.8906 20.2867 16.7364 19.0625 15.3125 19.0625C13.8886 19.0625 12.7344 20.2867 12.7344 21.7969C12.7344 23.307 13.8886 24.5312 15.3125 24.5312Z" fill="#22E81F"/>
<path d="M24.375 24.5312C25.7989 24.5312 26.9531 23.307 26.9531 21.7969C26.9531 20.2867 25.7989 19.0625 24.375 19.0625C22.9511 19.0625 21.7969 20.2867 21.7969 21.7969C21.7969 23.307 22.9511 24.5312 24.375 24.5312Z" fill="#22E81F"/>
<g clip-path="url(#clip1_533_2)">
<path d="M33.7996 21.1233C33.7625 21.124 33.7251 21.1247 33.688 21.1254C33.688 20.4345 33.688 19.7436 33.688 19.0527C33.7251 19.0534 33.7625 19.0541 33.7996 19.0548C33.7996 19.744 33.7996 20.4335 33.7996 21.1233Z" fill="white"/>
<path d="M6.55787 21.0101C6.52112 21.0097 6.48437 21.009 6.44727 21.008C6.44727 20.3951 6.44727 19.7819 6.44727 19.1691C6.48402 19.168 6.52077 19.1673 6.55787 19.167C6.55787 19.7816 6.55787 20.3958 6.55787 21.0101Z" fill="white"/>
<path d="M6.55786 21.0102C6.55786 20.3959 6.55786 19.7813 6.55786 19.1671C6.79726 16.6985 7.49866 14.4092 8.93821 12.34C10.2031 10.5217 11.8257 9.14729 13.7262 8.07909C15.1042 7.30454 16.6263 6.89784 18.1747 6.65984C21.0356 6.21989 23.794 6.70464 26.328 8.04794C30.178 10.0888 32.6598 13.229 33.4638 17.5882C33.5534 18.0744 33.7105 18.549 33.6881 19.0519C33.6881 19.7428 33.6881 20.4337 33.6881 21.1246C33.4284 23.7836 32.5874 26.2112 30.9133 28.3329C28.5368 31.345 25.4547 33.0848 21.6527 33.5349C17.8832 33.9812 14.506 32.9851 11.5454 30.6306C8.97846 28.5901 7.41186 25.9235 6.79761 22.7031C6.69086 22.1438 6.54561 21.5877 6.55786 21.0102ZM25.1264 30.6261C25.0932 30.5298 25.0841 30.449 25.0428 30.3909C24.1506 29.1323 23.2483 27.881 22.3649 26.6161C22.1913 26.3676 21.9971 26.3946 21.7668 26.4513C20.7721 26.697 19.7697 26.732 18.7655 26.5276C15.2253 25.8076 12.965 22.4168 13.6013 18.9371C14.3034 15.0976 18.0564 12.7509 21.8046 13.7487C22.0856 13.8236 22.227 13.776 22.3999 13.5244C23.241 12.3001 24.1104 11.0954 24.9759 9.88789C25.1688 9.61909 25.1471 9.50744 24.8062 9.36324C22.8525 8.53794 20.8491 8.21734 18.7249 8.46164C16.2861 8.74199 14.1385 9.67894 12.3444 11.2928C9.23081 14.0938 7.89801 17.6418 8.52871 21.7963C9.22871 26.4079 11.887 29.5064 16.2389 31.1346C18.0169 31.7996 19.8719 31.9729 21.7535 31.6862C22.9249 31.5081 24.0607 31.1959 25.1264 30.6261ZM31.8457 20.1345C31.8457 19.8471 31.8363 19.5594 31.8482 19.2728C31.8611 18.9637 31.7883 18.669 31.7428 18.3673C31.2661 15.2117 29.7233 12.7029 27.1991 10.7706C26.9401 10.5725 26.8295 10.542 26.6293 10.8392C26.0014 11.7719 25.3368 12.6798 24.6879 13.5986C24.4572 13.9251 24.018 14.2828 24.0572 14.5747C24.1013 14.9027 24.5776 15.1732 24.8685 15.4665C26.496 17.1087 26.8897 19.1006 26.5926 21.3213C26.3661 23.0136 25.3756 24.2088 24.1664 25.2749C23.9536 25.4625 23.9476 25.5542 24.1023 25.7695C24.9703 26.9766 25.8261 28.1925 26.6766 29.4119C26.8257 29.6258 26.9345 29.6226 27.1319 29.4644C27.8466 28.8925 28.5396 28.315 29.1311 27.5965C30.9228 25.4212 31.8825 22.9642 31.8457 20.1345ZM20.0612 15.3762C17.7502 15.2422 15.4097 17.4591 15.3677 20.013C15.3229 22.7392 17.8275 24.9634 20.3146 24.8294C22.6831 24.7016 24.8268 22.5593 24.8419 20.0753C24.8573 17.5868 22.6498 15.3041 20.0612 15.3762Z" fill="white"/>
</g>
</g>
<defs>
<clipPath id="clip0_533_2">
<rect width="40" height="40" fill="white"/>
</clipPath>
<clipPath id="clip1_533_2">
<rect width="28" height="28" fill="white" transform="translate(6 6)"/>
</clipPath>
</defs>
</svg>
