<svg width="40" height="40" viewBox="0 0 40 40" fill="none" xmlns="http://www.w3.org/2000/svg">
<rect width="40" height="40" rx="20" fill="white"/>
<g clip-path="url(#clip0_438_38)">
<path d="M16.6172 20.3846L26.6662 15.0001L19.1242 22.2476L18.7692 25.5631L20.8232 23.5756L27.5322 29.0331L30.9112 10.9556L12.1152 18.7761L16.6172 20.3846Z" fill="#22E81F"/>
<path d="M36.6665 0H3.3335C1.5005 0 0 1.5005 0 3.3335V36.6665C0 38.4995 1.5005 40 3.3335 40H36.6665C38.4995 40 40 38.4995 40 36.6665V3.3335C40 1.5005 38.4995 0 36.6665 0ZM30.2575 32.604C30.2575 32.604 29.5935 34.365 27.7675 33.5205L21.0155 28.029L16.686 32.2185C16.686 32.2185 16.3475 32.4905 15.9765 32.3195C15.9765 32.3195 15.6575 32.287 15.2575 30.9525C14.86 29.613 12.8355 22.5735 12.8355 22.5735L6.133 20.1795C6.133 20.1795 5.104 19.792 5.0065 18.947C4.906 18.1025 6.1685 17.6435 6.1685 17.6435L32.809 6.5565C32.809 6.5565 35 5.536 35 7.2255L30.2575 32.604Z" fill="#22E81F"/>
</g>
<defs>
<clipPath id="clip0_438_38">
<rect width="40" height="40" fill="white"/>
</clipPath>
</defs>
</svg>
