<svg width="50" height="50" viewBox="0 0 50 50" fill="none" xmlns="http://www.w3.org/2000/svg">
<path d="M41.2503 47.083L34.9482 40.7809C34.0802 41.3365 33.1601 41.8139 32.1878 42.2132C31.2156 42.6125 30.2087 42.9337 29.167 43.1768V38.9059C29.6531 38.7323 30.1305 38.5587 30.5993 38.3851C31.068 38.2115 31.5107 38.0032 31.9274 37.7601L25.0003 30.833V41.6663L14.5837 31.2497H6.25033V18.7497H12.917L2.91699 8.74967L5.83366 5.83301L44.167 44.1663L41.2503 47.083ZM40.8337 34.9997L37.8128 31.9788C38.4031 30.9025 38.8458 29.774 39.141 28.5934C39.4361 27.4129 39.5837 26.1976 39.5837 24.9476C39.5837 21.6837 38.6288 18.767 36.7191 16.1976C34.8094 13.6281 32.292 11.892 29.167 10.9893V6.71842C33.4726 7.69065 36.9795 9.86947 39.6878 13.2549C42.3962 16.6403 43.7503 20.5379 43.7503 24.9476C43.7503 26.7879 43.4986 28.5587 42.9951 30.2601C42.4916 31.9615 41.7712 33.5413 40.8337 34.9997ZM33.8545 28.0205L29.167 23.333V16.5622C30.7989 17.3261 32.075 18.4719 32.9951 19.9997C33.9153 21.5275 34.3753 23.1941 34.3753 24.9997C34.3753 25.5205 34.3319 26.0327 34.2451 26.5361C34.1583 27.0396 34.0281 27.5344 33.8545 28.0205ZM25.0003 19.1663L19.5837 13.7497L25.0003 8.33301V19.1663ZM20.8337 31.5622V26.6663L17.0837 22.9163H10.417V27.083H16.3545L20.8337 31.5622Z" fill="#26F12E"/>
</svg>
