<svg width="50" height="50" viewBox="0 0 50 50" fill="none" xmlns="http://www.w3.org/2000/svg">
<path d="M29.1667 43.1771V38.9062C32.2917 38.0035 34.809 36.2674 36.7187 33.6979C38.6285 31.1285 39.5833 28.2118 39.5833 24.9479C39.5833 21.684 38.6285 18.7674 36.7187 16.1979C34.809 13.6285 32.2917 11.8924 29.1667 10.9896V6.71875C33.4722 7.69097 36.9792 9.86979 39.6875 13.2552C42.3958 16.6406 43.75 20.5382 43.75 24.9479C43.75 29.3576 42.3958 33.2552 39.6875 36.6406C36.9792 40.026 33.4722 42.2049 29.1667 43.1771ZM6.25 31.25V18.75H14.5833L25 8.33333V41.6667L14.5833 31.25H6.25ZM29.1667 33.3333V16.5625C30.7986 17.3264 32.0747 18.4722 32.9948 20C33.9149 21.5278 34.375 23.1944 34.375 25C34.375 26.7708 33.9149 28.4115 32.9948 29.9219C32.0747 31.4323 30.7986 32.5694 29.1667 33.3333ZM20.8333 18.4375L16.3542 22.9167H10.4167V27.0833H16.3542L20.8333 31.5625V18.4375Z" fill="#26F12E"/>
</svg>
